<svg xmlns="http://www.w3.org/2000/svg" viewBox="0 0 100 100">
  <rect width="100" height="100" rx="20" fill="#2196F3"/>
  <!-- Antenna mast -->
  <rect x="48" y="42" width="4" height="36" fill="#ffffff"/>
  <!-- Antenna horizontal bar -->
  <rect x="36" y="42" width="28" height="4" fill="#ffffff"/>
  <!-- RF arcs radiating from top of mast -->
  <path d="M50 38 A16 16 0 0 1 66 54" fill="none" stroke="#ffffff" stroke-width="3.5" stroke-linecap="round"/>
  <path d="M50 38 A16 16 0 0 0 34 54" fill="none" stroke="#ffffff" stroke-width="3.5" stroke-linecap="round"/>
  <path d="M50 30 A24 24 0 0 1 74 54" fill="none" stroke="#ffffff" stroke-width="3" stroke-linecap="round" opacity="0.7"/>
  <path d="M50 30 A24 24 0 0 0 26 54" fill="none" stroke="#ffffff" stroke-width="3" stroke-linecap="round" opacity="0.7"/>
  <path d="M50 22 A32 32 0 0 1 82 54" fill="none" stroke="#ffffff" stroke-width="2.5" stroke-linecap="round" opacity="0.45"/>
  <path d="M50 22 A32 32 0 0 0 18 54" fill="none" stroke="#ffffff" stroke-width="2.5" stroke-linecap="round" opacity="0.45"/>
</svg>
